<?xml version="1.0" standalone="no"?>
<!DOCTYPE svg PUBLIC "-//W3C//DTD SVG 20010904//EN"
 "http://www.w3.org/TR/2001/REC-SVG-20010904/DTD/svg10.dtd">
<svg version="1.0" xmlns="http://www.w3.org/2000/svg"
 width="1500.000000pt" height="1500.000000pt" viewBox="0 0 1500.000000 1500.000000"
 preserveAspectRatio="xMidYMid meet">
<metadata>
Created by potrace 1.14, written by Peter Selinger 2001-2017
</metadata>
<g transform="translate(0.000000,1500.000000) scale(0.100000,-0.100000)"
fill="#000000" stroke="none">
<path d="M7747 10768 c1 -57 3 -197 5 -311 l3 -208 39 3 40 4 -3 179 c-1 99
-3 237 -4 308 l-2 127 -40 0 -41 0 3 -102z"/>
<path d="M8524 10775 c-66 -15 -116 -46 -157 -98 -56 -71 -72 -120 -72 -222 0
-81 3 -95 30 -144 33 -59 72 -96 143 -132 62 -32 205 -35 267 -5 38 18 135
109 135 126 0 5 -16 14 -36 19 -33 9 -38 8 -71 -26 -20 -19 -52 -42 -72 -50
-72 -30 -191 -8 -247 45 -51 49 -69 93 -69 172 0 63 4 83 28 125 29 52 79 94
133 113 47 15 130 6 183 -21 50 -26 111 -103 111 -142 0 -18 8 -25 40 -33 39
-10 40 -9 40 17 0 97 -91 213 -193 245 -71 22 -129 26 -193 11z"/>
<path d="M6945 10763 c-11 -3 -24 -8 -28 -12 -4 -5 11 -88 33 -187 35 -153 70
-307 85 -378 8 -34 18 -35 100 -15 89 21 118 28 155 35 77 14 85 19 83 53 0
18 -3 35 -6 37 -3 3 -60 -8 -128 -24 -68 -16 -127 -27 -131 -23 -5 5 -104 424
-116 494 -4 27 -9 29 -47 20z"/>
<path d="M6137 10442 c-25 -15 -28 -21 -23 -57 3 -22 8 -61 11 -87 3 -27 7
-68 10 -93 3 -25 7 -65 10 -90 6 -55 11 -98 25 -235 7 -58 13 -107 16 -109 2
-2 19 4 38 14 33 18 34 19 28 74 -10 103 -9 105 23 121 17 9 74 39 128 68 l97
54 60 -50 60 -50 40 19 41 20 -28 23 c-121 100 -496 396 -501 396 -4 0 -20 -8
-35 -18z m94 -123 c13 -12 40 -33 59 -48 19 -14 37 -28 40 -32 3 -3 28 -23 56
-45 l51 -41 -101 -56 -101 -56 -6 37 c-4 20 -10 69 -13 107 -4 39 -9 89 -12
113 -4 23 -4 42 -2 42 3 0 16 -10 29 -21z"/>
<path d="M9444 10247 c-99 -73 -204 -150 -234 -172 -30 -22 -61 -45 -68 -52
-8 -7 -22 -18 -33 -24 -24 -12 -18 -24 22 -45 30 -15 32 -14 82 23 29 22 57
43 64 46 10 6 229 -116 255 -141 5 -5 -11 -114 -21 -148 -3 -7 39 -39 62 -47
13 -5 17 -1 18 16 1 12 3 31 5 42 2 11 6 38 9 60 3 22 8 51 10 65 3 14 7 45
11 70 3 25 9 70 14 100 5 30 12 73 15 95 3 23 7 50 9 60 3 16 14 95 18 124 2
19 -5 28 -31 44 l-28 17 -179 -133z m146 -37 c-4 -25 -11 -63 -14 -85 -4 -22
-9 -53 -11 -70 -3 -16 -7 -43 -10 -59 -2 -16 -5 -30 -7 -31 -6 -6 -188 110
-185 118 2 8 229 178 233 174 1 -1 -1 -22 -6 -47z"/>
<path d="M5496 9657 c-138 -141 -184 -194 -292 -337 -263 -347 -464 -774 -569
-1210 -29 -123 -44 -200 -38 -200 4 0 126 61 131 65 2 2 14 45 27 97 71 282
135 457 255 693 156 310 328 550 573 800 105 108 120 137 86 173 -39 42 -64
30 -173 -81z"/>
<path d="M10220 9502 c-40 -32 -29 -62 64 -179 178 -221 341 -496 450 -755 56
-134 81 -205 126 -363 l37 -129 72 -37 c39 -20 71 -35 71 -33 0 2 -7 33 -16
71 -9 37 -17 75 -19 83 -13 58 -85 288 -105 335 -4 11 -23 56 -40 100 -60 148
-159 342 -262 510 -61 100 -238 337 -290 388 -27 26 -62 30 -88 9z"/>
<path d="M7640 9179 c-253 -126 -641 -317 -1515 -749 -220 -109 -602 -298
-850 -420 -247 -122 -577 -285 -732 -361 l-283 -139 -82 -1 c-46 0 -105 -5
-131 -10 -118 -22 -244 -113 -302 -220 -51 -95 -55 -126 -55 -485 l0 -332 -37
-7 c-129 -24 -263 -145 -307 -279 -23 -67 -30 -156 -14 -157 7 -1 91 -2 186
-3 l172 -1 1 25 c0 14 0 114 0 223 0 146 3 197 12 199 7 1 34 2 62 3 l50 1 1
329 c2 359 4 379 61 454 37 48 59 66 118 98 45 24 63 28 170 31 l120 4 610
-302 c875 -433 938 -464 957 -462 9 0 36 7 61 16 46 15 254 71 297 80 14 2 68
14 120 24 52 11 115 23 140 27 25 3 52 8 60 10 8 2 35 7 60 10 25 3 56 8 70
10 14 2 50 7 80 10 30 4 62 9 70 10 8 2 47 6 87 10 40 4 85 8 100 10 15 2 69
6 118 10 50 4 110 9 135 11 25 1 117 6 205 10 88 3 162 8 164 10 2 2 4 126 5
276 l1 273 280 1 c154 0 285 -2 292 -4 8 -2 11 -77 11 -273 0 -149 2 -272 4
-274 1 -1 75 -6 163 -9 88 -4 176 -8 195 -10 19 -2 80 -7 135 -11 55 -3 114
-8 130 -10 17 -2 57 -6 90 -10 33 -3 71 -7 85 -9 14 -3 50 -7 80 -11 248 -27
672 -116 849 -178 l43 -15 252 123 c138 67 454 223 701 345 248 122 516 254
597 294 82 39 148 73 148 76 0 3 -107 58 -237 122 -131 64 -499 245 -818 403
-640 317 -1221 604 -1770 875 -198 98 -488 241 -644 319 -156 77 -289 141
-296 141 -6 0 -130 -59 -275 -131z m324 -269 c19 -18 20 -34 21 -177 1 -111
-2 -166 -11 -184 -21 -43 -63 -51 -103 -20 -24 18 -24 22 -26 182 -1 90 3 174
8 185 19 44 75 51 111 14z m-360 -267 c124 -122 139 -154 91 -191 -15 -12 -37
-22 -48 -22 -13 0 -63 42 -134 113 -122 122 -134 147 -91 187 42 39 66 28 182
-87z m806 85 c39 -42 28 -64 -93 -185 -71 -71 -121 -113 -134 -113 -33 0 -73
38 -73 69 0 23 22 51 111 140 121 121 147 133 189 89z m-422 -420 c36 -35 89
-85 118 -113 28 -27 76 -72 105 -99 30 -27 122 -113 204 -191 83 -78 185 -175
229 -216 43 -41 117 -111 164 -155 l86 -81 -88 -1 c-83 -1 -89 0 -114 27 -58
60 -317 333 -322 340 -10 12 -69 51 -79 51 -5 0 -17 10 -25 22 -9 13 -27 22
-42 23 -30 0 -30 1 -38 104 -8 101 -24 100 -32 -2 -8 -98 -9 -102 -30 -103
-10 -1 -27 -2 -36 -3 -11 -1 -16 -8 -13 -21 10 -54 -82 -74 -192 -41 -95 28
-153 27 -248 -4 -151 -50 -293 -130 -467 -267 -152 -119 -167 -128 -203 -128
-33 1 -28 6 290 305 71 66 149 140 174 163 25 24 100 94 165 155 66 62 138
130 161 152 100 96 154 145 160 145 4 0 37 -28 73 -62z m-437 -27 c42 -51 8
-111 -64 -112 -178 -3 -231 1 -248 17 -25 22 -24 72 1 99 18 19 30 21 156 20
130 -1 137 -2 155 -24z m1026 15 c45 -15 47 -92 2 -116 -28 -16 -260 -16 -288
-1 -46 25 -33 109 19 121 34 8 240 5 267 -4z"/>
<path d="M4564 6972 c3 -20 8 -57 11 -82 3 -25 8 -52 10 -60 2 -8 7 -35 10
-60 17 -121 123 -504 165 -595 5 -11 25 -60 45 -110 287 -708 893 -1341 1608
-1679 243 -115 558 -220 782 -260 111 -20 146 -26 190 -31 28 -4 61 -8 75 -11
142 -23 546 -22 738 1 48 6 311 51 347 59 1068 247 1930 985 2330 1996 47 120
109 303 119 356 2 10 13 55 25 99 11 44 23 96 26 115 3 19 10 58 15 85 13 68
19 115 15 115 -1 0 -32 -14 -68 -30 l-64 -31 -21 -102 c-11 -56 -22 -111 -25
-122 -3 -11 -10 -42 -16 -69 -72 -311 -294 -783 -499 -1056 -47 -63 -56 -81
-59 -124 -3 -56 -32 -122 -67 -155 -24 -22 -109 -58 -136 -57 -8 1 -47 -30
-85 -69 -39 -38 -97 -92 -129 -120 -32 -27 -68 -58 -80 -69 -57 -50 -220 -166
-333 -237 -210 -132 -501 -266 -713 -328 -41 -13 -86 -26 -100 -31 -61 -22
-301 -73 -397 -85 -26 -4 -55 -8 -63 -10 -100 -25 -654 -26 -786 -1 -11 2 -41
7 -69 10 -317 43 -696 168 -1010 332 -105 55 -269 154 -273 166 -2 4 -9 8 -14
8 -16 0 -230 162 -328 249 -372 330 -652 725 -835 1176 -64 157 -104 282 -143
441 -25 102 -35 151 -57 279 -2 11 -4 30 -4 43 -1 17 -16 30 -72 57 l-71 34 6
-37z"/>
<path d="M7667 6663 c-1 0 -81 -4 -177 -8 -96 -3 -197 -8 -225 -10 -92 -7
-210 -17 -250 -21 -102 -11 -143 -15 -175 -19 -19 -3 -52 -7 -74 -10 -70 -8
-141 -19 -211 -31 -16 -3 -41 -7 -55 -9 -139 -19 -423 -89 -590 -145 -152 -51
-190 -68 -191 -83 -5 -73 -2 -940 3 -943 4 -2 41 9 83 26 80 32 276 93 354
111 25 6 53 12 61 14 68 18 327 67 415 80 84 12 190 25 240 30 33 4 71 8 85
10 14 2 59 6 100 10 41 3 95 8 120 10 294 30 1004 35 1345 10 219 -16 231 -17
358 -30 134 -14 427 -57 547 -80 61 -12 220 -48 266 -61 28 -8 60 -16 71 -19
28 -5 215 -68 281 -94 29 -12 55 -21 57 -21 3 0 5 215 5 479 l0 479 -49 21
c-127 54 -421 139 -581 167 -14 3 -59 11 -100 19 -111 22 -154 29 -245 40 -22
3 -58 7 -80 11 -76 11 -90 13 -155 19 -36 3 -81 8 -100 10 -31 4 -91 9 -250
20 -170 13 -874 27 -883 18z"/>
<path d="M3813 6239 l2 -224 187 0 c201 0 201 -1 192 52 -2 15 -6 44 -10 63
-22 144 -186 307 -328 326 l-44 6 1 -223z"/>
<path d="M3325 5890 c-8 -13 4 -358 13 -385 47 -146 159 -258 297 -298 229
-65 476 67 542 292 19 67 27 390 9 392 -37 4 -858 3 -861 -1z"/>
</g>
</svg>
